<svg width="377" height="377" viewBox="0 0 377 377" fill="none" xmlns="http://www.w3.org/2000/svg">
<rect width="377" height="377" fill="#D9F99D"/>
<path d="M84.5086 228.688H56V225.27H59.6571V187.868H56V174.237H78.7737V179.889C79.2723 179.224 79.9096 178.504 80.6853 177.728C81.5165 176.897 82.4861 176.149 83.5944 175.484C84.7026 174.819 85.9216 174.265 87.2514 173.822C88.5813 173.323 90.0497 173.074 91.6566 173.074C97.4192 173.074 101.686 175.207 104.456 179.473C107.282 183.685 108.695 189.641 108.695 197.343C108.695 205.045 107.282 211.03 104.456 215.296C101.686 219.507 97.4192 221.613 91.6566 221.613C90.0497 221.613 88.5813 221.364 87.2514 220.865C85.9216 220.422 84.7026 219.868 83.5944 219.203C82.4861 218.538 81.5165 217.817 80.6853 217.042C79.9096 216.211 79.2723 215.462 78.7737 214.798V225.27H84.5086V228.688ZM88.4151 193.188C88.4151 191.304 87.9995 189.946 87.1683 189.115C86.3926 188.284 85.2013 187.868 83.5944 187.868C81.9875 187.868 80.7684 188.284 79.9373 189.115C79.1615 189.946 78.7737 191.304 78.7737 193.188V201.499C78.7737 203.383 79.1615 204.741 79.9373 205.572C80.7684 206.403 81.9875 206.818 83.5944 206.818C85.2013 206.818 86.3926 206.403 87.1683 205.572C87.9995 204.741 88.4151 203.383 88.4151 201.499V193.188Z" fill="black"/>
<path d="M133.995 206.818H137.652V220.449H111.221V206.818H114.878V187.868H111.221V174.237H133.995V206.818Z" fill="black"/>
<path d="M159.404 200.335C159.404 202.386 159.958 203.993 161.066 205.156C162.229 206.264 164.141 206.818 166.801 206.818C169.516 206.818 172.231 206.68 174.946 206.403C177.661 206.126 180.293 205.766 182.842 205.322V218.372C181.789 218.759 180.653 219.147 179.434 219.535C178.215 219.923 176.858 220.255 175.362 220.533C173.866 220.865 172.203 221.114 170.375 221.281C168.602 221.502 166.579 221.613 164.307 221.613C160.429 221.613 156.938 221.114 153.835 220.117C150.732 219.12 148.072 217.624 145.856 215.629C143.695 213.579 142.032 211.057 140.869 208.065C139.705 205.018 139.123 201.444 139.123 197.343C139.123 193.298 139.705 189.752 140.869 186.705C142.032 183.657 143.695 181.136 145.856 179.141C148.072 177.091 150.732 175.567 153.835 174.57C156.938 173.572 160.401 173.074 164.224 173.074C166.551 173.074 168.657 173.24 170.541 173.572C172.48 173.905 174.226 174.32 175.777 174.819C177.329 175.318 178.714 175.872 179.933 176.481C181.207 177.091 182.343 177.673 183.341 178.227V194.684H169.045V193.188C169.045 191.304 168.629 189.946 167.798 189.115C167.022 188.284 165.831 187.868 164.224 187.868C162.673 187.868 161.481 188.284 160.65 189.115C159.819 189.946 159.404 191.304 159.404 193.188V200.335Z" fill="black"/>
<path d="M235.181 187.868L228.116 195.764L236.095 206.818H239.669V220.449H219.306L210.745 204.491H208.75V220.449H185.976V206.818H189.634V169.416H185.976V155.786H208.75V189.53H210.745L221.051 174.237H238.589V187.868H235.181Z" fill="black"/>
<path d="M241.982 155.786H264.756V206.818H268.413V220.449H241.982V206.818H245.639V169.416H241.982V155.786Z" fill="black"/>
<path d="M299.806 214.798C299.307 215.462 298.642 216.211 297.811 217.042C296.98 217.817 295.955 218.538 294.736 219.203C293.572 219.868 292.187 220.422 290.58 220.865C289.028 221.364 287.255 221.613 285.261 221.613C280.44 221.613 276.672 220.505 273.957 218.288C271.242 216.072 269.884 212.858 269.884 208.647C269.884 203.383 272.322 199.421 277.198 196.762C282.13 194.046 289.666 192.689 299.806 192.689C299.806 191.137 299.307 189.946 298.31 189.115C297.312 188.284 295.262 187.868 292.159 187.868C288.835 187.868 285.482 188.117 282.102 188.616C278.778 189.115 275.702 189.669 272.876 190.278V175.983C275.702 175.207 279.165 174.542 283.266 173.988C287.366 173.378 291.577 173.074 295.899 173.074C300.332 173.074 304.017 173.489 306.954 174.32C309.946 175.151 312.329 176.426 314.102 178.144C315.875 179.806 317.122 181.912 317.842 184.46C318.562 186.954 318.922 189.863 318.922 193.188V206.818H322.579V220.449H299.806V214.798ZM299.806 201C296.37 201 293.905 201.25 292.409 201.748C290.912 202.192 290.164 202.995 290.164 204.159C290.164 205.932 291.688 206.818 294.736 206.818C298.116 206.818 299.806 205.045 299.806 201.499V201Z" fill="black"/>
<path d="M132.071 163.96C129.296 168.539 123.71 170.228 119.595 167.733C115.48 165.239 114.394 159.504 117.17 154.926C119.946 150.347 125.532 148.658 129.647 151.153C133.762 153.647 134.847 159.381 132.071 163.96Z" fill="black"/>
</svg>
