<svg width="345" height="103" viewBox="0 0 345 103" fill="none" xmlns="http://www.w3.org/2000/svg">
<path d="M36.8951 103H0L0 98.5256H4.7329L4.7329 49.5679H0L0 31.7255L29.4731 31.7255L29.4731 39.1236C30.1185 38.2532 30.9431 37.3103 31.9471 36.2949C33.0227 35.207 34.2777 34.2278 35.7119 33.3575C37.1461 32.4871 38.7237 31.7618 40.4448 31.1816C42.1658 30.5288 44.0662 30.2024 46.1458 30.2024C53.6037 30.2024 59.1254 32.9948 62.7109 38.5796C66.3682 44.0919 68.1968 51.8889 68.1968 61.9705C68.1968 72.0522 66.3682 79.8854 62.7109 85.4702C59.1254 90.9825 53.6037 93.7386 46.1458 93.7386C44.0662 93.7386 42.1658 93.4123 40.4448 92.7595C38.7237 92.1793 37.1461 91.4539 35.7119 90.5836C34.2777 89.7132 33.0227 88.7703 31.9471 87.7549C30.9431 86.667 30.1185 85.6878 29.4731 84.8175V98.5256H36.8951V103ZM41.9507 56.5308C41.9507 54.0648 41.4129 52.2878 40.3372 51.1998C39.3333 50.1119 37.7915 49.5679 35.7119 49.5679C33.6323 49.5679 32.0546 50.1119 30.979 51.1998C29.975 52.2878 29.4731 54.0648 29.4731 56.5308V67.4103C29.4731 69.8763 29.975 71.6533 30.979 72.7412C32.0546 73.8292 33.6323 74.3731 35.7119 74.3731C37.7915 74.3731 39.3333 73.8292 40.3372 72.7412C41.4129 71.6533 41.9507 69.8763 41.9507 67.4103L41.9507 56.5308Z" fill="#3E3D39"/>
<path d="M100.939 74.3731H105.672V92.2155H71.4658V74.3731H76.1987V49.5679H71.4658L71.4658 31.7255L100.939 31.7255L100.939 74.3731Z" fill="#3E3D39"/>
<path d="M133.822 65.8871C133.822 68.5707 134.539 70.6741 135.973 72.1972C137.479 73.6478 139.953 74.3731 143.395 74.3731C146.909 74.3731 150.423 74.1918 153.937 73.8292C157.451 73.4665 160.857 72.9951 164.156 72.4148L164.156 89.4956C162.793 90.0033 161.323 90.5111 159.745 91.0188C158.168 91.5265 156.411 91.9617 154.475 92.3243C152.539 92.7595 150.387 93.0859 148.021 93.3035C145.726 93.5936 143.109 93.7386 140.168 93.7386C135.149 93.7386 130.631 93.0859 126.615 91.7803C122.599 90.4748 119.157 88.5165 116.289 85.9054C113.492 83.2218 111.341 79.9217 109.835 76.0051C108.329 72.0159 107.576 67.3377 107.576 61.9705C107.576 56.6758 108.329 52.0339 109.835 48.0448C111.341 44.0556 113.492 40.7555 116.289 38.1444C119.157 35.4608 122.599 33.4662 126.615 32.1607C130.631 30.8552 135.113 30.2024 140.061 30.2024C143.073 30.2024 145.798 30.42 148.236 30.8552C150.746 31.2903 153.005 31.8343 155.013 32.4871C157.02 33.1399 158.813 33.8652 160.391 34.663C162.04 35.4608 163.51 36.2224 164.801 36.9477V58.4891L146.3 58.4891V56.5308C146.3 54.0648 145.762 52.2878 144.686 51.1998C143.682 50.1119 142.14 49.5679 140.061 49.5679C138.053 49.5679 136.511 50.1119 135.436 51.1998C134.36 52.2878 133.822 54.0648 133.822 56.5308V65.8871Z" fill="#3E3D39"/>
<path d="M231.891 49.5679L222.748 59.9034L233.074 74.3731H237.7L237.7 92.2155L211.346 92.2155L200.267 71.3269H197.685L197.685 92.2155H168.212L168.212 74.3731H172.945V25.4154H168.212V7.57305L197.685 7.57305V51.7438L200.267 51.7438L213.605 31.7255L236.301 31.7255V49.5679H231.891Z" fill="#3E3D39"/>
<path d="M240.693 7.57305L270.166 7.57305V74.3731H274.899V92.2155H240.693L240.693 74.3731H245.426V25.4154H240.693V7.57305Z" fill="#3E3D39"/>
<path d="M315.527 84.8175C314.882 85.6878 314.021 86.667 312.945 87.7549C311.87 88.7703 310.543 89.7132 308.965 90.5836C307.459 91.4539 305.667 92.1793 303.587 92.7595C301.579 93.4123 299.284 93.7386 296.703 93.7386C290.464 93.7386 285.588 92.288 282.074 89.3868C278.56 86.4857 276.803 82.2789 276.803 76.7666C276.803 69.8763 279.958 64.6904 286.269 61.209C292.651 57.655 302.404 55.878 315.527 55.878C315.527 53.8472 314.882 52.2878 313.591 51.1998C312.3 50.1119 309.647 49.5679 305.631 49.5679C301.328 49.5679 296.99 49.8943 292.615 50.5471C288.313 51.1998 284.333 51.9251 280.676 52.723V34.0102C284.333 32.9948 288.815 32.1244 294.121 31.3991C299.428 30.6013 304.878 30.2024 310.471 30.2024C316.208 30.2024 320.977 30.7464 324.778 31.8343C328.65 32.9223 331.734 34.5905 334.028 36.8389C336.323 39.0148 337.937 41.7709 338.869 45.1073C339.801 48.3712 340.267 52.179 340.267 56.5308V74.3731H345V92.2155H315.527V84.8175ZM315.527 66.7575C311.081 66.7575 307.89 67.0839 305.954 67.7367C304.017 68.3169 303.049 69.3686 303.049 70.8917C303.049 73.2127 305.021 74.3731 308.965 74.3731C313.34 74.3731 315.527 72.0522 315.527 67.4103V66.7575Z" fill="#3E3D39"/>
<path d="M98.4497 18.273C94.8573 24.2663 87.6279 26.4776 82.3024 23.2121C76.977 19.9466 75.572 12.4409 79.1644 6.44766C82.7568 0.454406 89.9861 -1.75689 95.3116 1.5086C100.637 4.77409 102.042 12.2798 98.4497 18.273Z" fill="#3E3D39"/>
</svg>
